<svg width="64" height="64" viewBox="0 0 64 64" fill="none" xmlns="http://www.w3.org/2000/svg">
<g filter="url(#filter0_d_601_310)">
<rect x="8" y="8" width="48" height="48" rx="11" fill="white" shape-rendering="crispEdges"/>
<path d="M32 33.5C32 34.2956 32.3161 35.0587 32.8787 35.6213C33.4413 36.1839 34.2044 36.5 35 36.5C35.7956 36.5 36.5587 36.1839 37.1213 35.6213C37.6839 35.0587 38 34.2956 38 33.5C38 32.7044 37.6839 31.9413 37.1213 31.3787C36.5587 30.8161 35.7956 30.5 35 30.5C34.2044 30.5 33.4413 30.8161 32.8787 31.3787C32.3161 31.9413 32 32.7044 32 33.5Z" stroke="#0B05C6" stroke-width="1.5" stroke-linecap="round" stroke-linejoin="round"/>
<path d="M33 36V40.5L35 39L37 40.5V36" stroke="#0B05C6" stroke-width="1.5" stroke-linecap="round" stroke-linejoin="round"/>
<path d="M30 37.5H25C24.4696 37.5 23.9609 37.2893 23.5858 36.9142C23.2107 36.5391 23 36.0304 23 35.5V25.5C23 24.4 23.9 23.5 25 23.5H39C39.5304 23.5 40.0391 23.7107 40.4142 24.0858C40.7893 24.4609 41 24.9696 41 25.5V35.5C40.9996 35.8507 40.9071 36.1952 40.7315 36.4988C40.556 36.8025 40.3037 37.0546 40 37.23M26 27.5H38M26 30.5H29M26 33.5H28" stroke="#0B05C6" stroke-width="1.5" stroke-linecap="round" stroke-linejoin="round"/>
</g>
<defs>
<filter id="filter0_d_601_310" x="0" y="0" width="64" height="64" filterUnits="userSpaceOnUse" color-interpolation-filters="sRGB">
<feFlood flood-opacity="0" result="BackgroundImageFix"/>
<feColorMatrix in="SourceAlpha" type="matrix" values="0 0 0 0 0 0 0 0 0 0 0 0 0 0 0 0 0 0 127 0" result="hardAlpha"/>
<feOffset/>
<feGaussianBlur stdDeviation="4"/>
<feComposite in2="hardAlpha" operator="out"/>
<feColorMatrix type="matrix" values="0 0 0 0 0 0 0 0 0 0 0 0 0 0 0 0 0 0 0.14 0"/>
<feBlend mode="normal" in2="BackgroundImageFix" result="effect1_dropShadow_601_310"/>
<feBlend mode="normal" in="SourceGraphic" in2="effect1_dropShadow_601_310" result="shape"/>
</filter>
</defs>
</svg>
