<svg width="43" height="41" viewBox="0 0 43 41" fill="none" xmlns="http://www.w3.org/2000/svg">
<rect width="43" height="41" rx="10" fill="#09049B"/>
<path d="M16.9032 12.3452C17.5463 12.3452 18.709 12.6528 20.5948 14.5101L21.5299 15.4307L22.4508 14.4954C23.7601 13.1651 25.1534 12.3389 26.0868 12.3389C27.3455 12.3389 28.3377 12.7696 29.3052 13.7348C30.2167 14.6443 30.7194 15.8535 30.7194 17.1398C30.7201 18.4268 30.2183 19.637 29.2967 20.5563C29.2216 20.6324 25.2587 24.9082 21.9386 28.4914C21.7821 28.6399 21.6034 28.6619 21.5083 28.6619C21.4145 28.6619 21.2377 28.6409 21.0819 28.496C20.2728 27.596 14.4086 21.0755 13.7268 20.3943C12.814 19.4839 12.3119 18.2736 12.3119 16.987C12.3122 15.7007 12.8143 14.4918 13.7271 13.5813C14.6146 12.6944 15.6536 12.3452 16.9032 12.3452ZM16.9031 11.0333C15.3344 11.0333 13.9514 11.5026 12.7998 12.6528C10.4001 15.0464 10.4001 18.9279 12.7998 21.3228C13.485 22.0083 20.1353 29.4061 20.1353 29.4061C20.5141 29.7853 21.0117 29.9735 21.5079 29.9735C22.0045 29.9735 22.5 29.7853 22.8795 29.4061C22.8795 29.4061 30.154 21.5547 30.2314 21.4763C32.6305 19.0804 32.6305 15.1988 30.2314 12.8053C29.0402 11.6164 27.7096 11.0264 26.0864 11.0264C24.5358 11.0264 22.8067 12.2628 21.5151 13.5747C20.1829 12.2631 18.5072 11.0333 16.9031 11.0333H16.9031Z" fill="white"/>
</svg>
